<?xml version="1.0" standalone="no"?><!DOCTYPE svg PUBLIC "-//W3C//DTD SVG 1.1//EN" "http://www.w3.org/Graphics/SVG/1.1/DTD/svg11.dtd"><svg t="1566803474452" class="icon" viewBox="0 0 1024 1024" version="1.1" xmlns="http://www.w3.org/2000/svg" p-id="3483" xmlns:xlink="http://www.w3.org/1999/xlink" width="200" height="200"><defs><style type="text/css"></style></defs><path d="M512 928.2c-229.2 0-415-185.8-415-415s185.8-415 415-415 415 185.8 415 415-185.8 415-415 415z m0.4-77.4c186.2 0 337.2-151 337.2-337.2s-151-337.2-337.2-337.2-337.2 151-337.2 337.2 150.9 337.2 337.2 337.2zM382.3 357.6h51.9c14.3 0 25.9 11.6 25.9 25.9v259.4c0 14.3-11.6 25.9-25.9 25.9h-51.9c-14.3 0-25.9-11.6-25.9-25.9V383.5c0-14.3 11.6-25.9 25.9-25.9z m207.5 0h51.9c14.3 0 25.9 11.6 25.9 25.9v259.4c0 14.3-11.6 25.9-25.9 25.9h-51.9c-14.3 0-25.9-11.6-25.9-25.9V383.5c0-14.3 11.6-25.9 25.9-25.9z" p-id="3484" fill="#ffffff"></path></svg>